<svg width="25px" height="25px" viewBox="0 0 25 25" version="1.1" xmlns="http://www.w3.org/2000/svg" xmlns:xlink="http://www.w3.org/1999/xlink">
    <g id="Resources" stroke="none" stroke-width="1" fill="none" fill-rule="evenodd">
        <g id="Watched-/-Watch-List" transform="translate(-33.000000, -16.000000)" fill="#00FFED" fill-rule="nonzero">
            <g id="success-1" transform="translate(33.000000, 16.000000)">
                <path d="M12.5,0 C5.60769231,0 0,5.60721154 0,12.5 C0,19.3927885 5.60769231,25 12.5,25 C19.3923077,25 25,19.3927885 25,12.5 C25,5.60721154 19.3923077,0 12.5,0 Z M19.46875,8.33125 L11.7764423,16.9850962 C11.5870192,17.1980769 11.3230769,17.3076923 11.0572115,17.3076923 C10.8461538,17.3076923 10.6341346,17.2384615 10.4567308,17.0971154 L5.64903846,13.2509615 C5.23461538,12.9197115 5.16730769,12.3144231 5.49903846,11.8995192 C5.83028846,11.4846154 6.43605769,11.4173077 6.85048077,11.7490385 L10.9451923,15.0245192 L18.03125,7.05288462 C18.3831731,6.65576923 18.9918269,6.62019231 19.3884615,6.97307692 C19.7855769,7.32644231 19.8216346,7.93413462 19.46875,8.33125 Z" id="Shape"></path>
            </g>
        </g>
    </g>
</svg>